Coordinates
version=1
nRows=17
nColumns=34
inDegrees=yes

Units are S.I. units (second, meters, Newtons, ...)
If the header above contains a line with 'inDegrees', this indicates whether rotational values are in degrees (yes) or radians (no).

endheader
time	pelvis_tilt	pelvis_list	pelvis_rotation	pelvis_tx	pelvis_ty	pelvis_tz	hip_flexion_r	hip_adduction_r	hip_rotation_r	knee_angle_r	ankle_angle_r	subtalar_angle_r	mtp_angle_r	hip_flexion_l	hip_adduction_l	hip_rotation_l	knee_angle_l	ankle_angle_l	subtalar_angle_l	mtp_angle_l	lumbar_extension	lumbar_bending	lumbar_rotation	arm_flex_r	arm_add_r	arm_rot_r	elbow_flex_r	pro_sup_r	arm_flex_l	arm_add_l	arm_rot_l	elbow_flex_l	pro_sup_l
      2.50000000	     -7.49709712	      1.63768378	     -1.24094847	      0.69153290	      0.60731350	     -0.07567104	     83.07857209	    -14.81630509	      4.46025482	    102.71176234	     34.45565052	      0.35194273	      0.00000000	     84.32700004	    -11.37817652	      7.69103767	    104.22389854	     33.75469781	      5.42893005	      0.00000000	    -45.02367665	      0.15977239	     -2.91612045	     67.83035121	    -20.69547554	     14.99204172	    123.48467005	     94.57580797	     60.69179920	    -24.99290650	      3.06415515	    120.31820423	     82.35233288
      2.51666670	     -9.98219711	      1.80994081	     -1.22759065	      0.69524195	      0.59591730	     -0.08196446	     87.76386472	    -15.84168949	      5.23607379	    104.93522605	     34.65710396	      1.86761844	      0.00000000	     88.87396009	    -11.31707677	      7.76066709	    106.58270996	     33.97896295	      5.81251995	      0.00000000	    -45.55845387	      0.56717499	     -2.45082811	     73.96332311	    -19.05792870	     17.07812796	    120.79914337	     95.50787457	     68.04399005	    -22.01843431	      6.20853787	    116.04625060	     83.19805747
      2.53333330	    -11.69131027	      2.01432299	     -1.19028634	      0.68330347	      0.57878106	     -0.07523189	     91.76729211	    -16.24891477	      5.79748839	    106.76601275	     34.30749110	      2.70898167	      0.00000000	     92.64652810	    -11.40893285	      7.93067572	    108.22380175	     33.72915147	      6.47796203	      0.00000000	    -46.99463166	      0.04733315	     -1.11901382	     79.91365114	    -18.44545703	     17.05360134	    119.00908233	     97.66884194	     78.33113194	    -17.39012031	     11.14155720	    109.52525862	     85.37446457
      2.55000000	    -13.58113594	      2.06950383	     -1.10071156	      0.68626659	      0.56281870	     -0.07187724	     96.13662851	    -16.34333126	      6.25103659	    108.98230679	     34.00716065	      3.06576905	      0.00000000	     96.74699679	    -11.72094412	      8.54989324	    110.02514343	     33.15145835	      7.00172632	      0.00000000	    -47.10546637	      0.06493683	     -1.01339682	     84.77469550	    -15.79643064	     18.28762559	    114.44143049	     98.39883766	     84.80104284	    -14.44581971	     12.63027061	    104.34067661	     85.99480845
      2.56666670	    -15.11240183	      2.17633259	     -0.91033838	      0.69399496	      0.55405475	     -0.06927873	     99.07223057	    -16.23891879	      6.55329934	    110.60647813	     34.03716605	      3.11713722	      0.00000000	     99.61781324	    -12.14960335	      9.01880783	    111.29349641	     32.82294740	      7.66290056	      0.00000000	    -47.60678633	     -0.15575968	     -0.26263534	     88.37688994	    -14.19648056	     19.06858106	    110.90248635	    100.09285255	     89.72065136	    -10.95851752	     13.49998001	     99.66477707	     87.27165217
      2.58333330	    -17.07094333	      2.40888979	     -0.70476665	      0.69923182	      0.54430455	     -0.06647348	    101.90239071	    -16.23474987	      6.77498844	    111.80799818	     34.25566351	      3.27800283	      0.00000000	    102.40058592	    -12.60796351	      9.34057684	    112.29113102	     32.95071000	      8.59041812	      0.00000000	    -46.86296716	     -0.34415942	      0.00053868	     90.47869981	    -12.41393909	     20.06698912	    107.09410274	    100.57895194	     92.91138891	     -8.45232495	     13.69446193	     95.33007054	     87.50264363
      2.60000000	    -18.44033661	      2.58473864	     -0.58598095	      0.69991526	      0.53820289	     -0.06777193	    103.54147218	    -16.57711872	      6.75850948	    112.40836571	     34.84859346	      3.66322709	      0.00000000	    104.32336676	    -12.73233530	      9.42849638	    113.04644306	     32.90457506	      8.86330274	      0.00000000	    -46.61913909	     -0.53776390	      0.65481923	     91.99813234	    -11.97315160	     20.41647178	    103.60407760	    101.48050359	     95.99143642	     -5.51125024	     13.69865071	     89.68981340	     87.81568381
      2.61666670	    -20.30937975	      2.62507075	     -0.13059666	      0.71487028	      0.54084603	     -0.06374776	    104.48202714	    -17.31090461	      6.39216008	    112.47953127	     35.78926341	      4.08946118	      0.00000000	    105.71900633	    -12.87590892	      9.38686521	    113.09446703	     32.93595598	      9.12683882	      0.00000000	    -45.61133353	     -0.51135513	      1.24357324	     91.15630985	    -11.96770568	     19.80820387	    101.56826706	    102.10200298	     97.37097962	     -2.86647784	     13.24107358	     85.14079437	     87.75266722
      2.63333330	    -21.84208746	      2.65958668	     -0.10113452	      0.71297406	      0.53820552	     -0.06886258	    105.10030314	    -17.89705763	      5.97047058	    111.88270637	     36.15648350	      4.57479945	      0.00000000	    106.85365444	    -12.67301036	      9.21930232	    113.10040169	     33.12723537	      9.07029759	      0.00000000	    -44.52266805	     -0.27917260	      1.18015415	     90.58089155	    -11.12994512	     19.14212863	     97.18596341	    102.07791537	     98.35903788	     -1.53527179	     12.17396918	     79.26376564	     87.44714327
      2.65000000	    -22.16080771	      2.52866875	     -0.50819152	      0.71919292	      0.54429792	     -0.07400624	    104.44305833	    -18.14796178	      5.48846828	    111.28565061	     36.09962519	      4.94814655	      0.00000000	    106.05315501	    -12.43678364	      9.09852026	    112.76466472	     33.80380246	      8.43672119	      0.00000000	    -44.68880341	     -0.27426699	      1.51614513	     89.95633624	    -11.41288123	     17.94379015	     93.05404157	    101.41628375	     99.60900252	      0.16984959	     10.91781940	     72.35024885	     86.21926972
      2.66666670	    -22.48642772	      2.20018114	     -0.60527791	      0.72240342	      0.56214917	     -0.06194090	    102.89493970	    -17.87331110	      4.35887518	    109.98272629	     35.44934468	      4.13471426	      0.00000000	    104.33810882	    -12.31039575	      9.23792681	    111.14000556	     34.08562737	      7.68249093	      0.00000000	    -45.13815216	     -0.06303314	      1.50632318	     88.87572298	    -10.39385696	     17.22534577	     87.91184217	    100.86200151	     99.62732581	     -0.17798268	      9.61034447	     66.73058372	     85.39477113
      2.68333330	    -22.27872988	      2.21414945	     -0.51569173	      0.72364127	      0.57276810	     -0.05747511	    100.95862966	    -17.43785616	      3.57685742	    108.56847923	     34.54719268	      3.05186881	      0.00000000	    101.84439001	    -12.07717042	      8.97417426	    109.03252434	     33.84580286	      6.90205585	      0.00000000	    -45.82507330	     -0.08811154	      0.99720982	     87.24765462	     -9.98144525	     16.91991340	     82.60379718	     99.86058388	     99.02147633	     -1.50028282	      8.59366741	     60.57383110	     84.12229194
      2.70000000	    -22.71422701	      2.04624902	     -0.21540699	      0.75337374	      0.59144973	     -0.05638467	     97.91291568	    -17.17066341	      2.59715401	    106.47408089	     35.00689875	      2.50755664	      0.00000000	     98.96002525	    -11.90303926	      8.83310464	    106.56153763	     33.73996432	      6.16750032	      0.00000000	    -45.04640902	      0.33248515	      0.82896664	     82.02671306	    -10.65916972	     16.11630484	     79.55858481	     98.82601982	     95.24861630	     -3.41603901	      7.17264450	     56.18875534	     82.71609705
      2.71666670	    -22.41097671	      2.33794206	     -0.70574678	      0.75113339	      0.60298187	     -0.06034180	     94.37213160	    -16.43730871	      2.11964366	    103.65208284	     35.09670438	      2.04875115	      0.00000000	     95.60739843	    -11.96054370	      8.09482212	    104.24953441	     34.06663434	      5.26291963	      0.00000000	    -44.75865480	     -0.03581344	      1.06407084	     77.31492400	    -12.68309514	     16.27366545	     76.87218547	     88.01002858	     92.01452596	     -4.87099737	      9.00634997	     50.12786524	     69.59865207
      2.73333330	    -21.78356180	      2.56333331	     -1.13268192	      0.74740562	      0.61301129	     -0.05664691	     91.31534586	    -15.74606709	      1.96813794	    101.21849710	     35.17218382	      2.13414749	      0.00000000	     92.55010379	    -11.79042577	      7.68089693	    101.98150659	     33.85689456	      4.21061565	      0.00000000	    -44.62223933	     -0.18195106	      0.70849080	     72.87258714	    -13.74684078	     16.09541315	     72.06128840	     87.85116436	     87.78775531	     -6.94278055	      8.70414390	     45.31649417	     68.94755361
      2.75000000	    -21.11497537	      2.87404548	     -1.73972379	      0.75226481	      0.62951009	     -0.06266827	     88.12360638	    -15.16915598	      1.83551707	     98.19064920	     34.85777846	      1.96002825	      0.00000000	     88.95649336	    -11.55748271	      6.85000651	     99.35170861	     33.94128771	      2.99213360	      0.00000000	    -44.22656363	     -0.13180151	      0.82997768	     67.59741199	    -15.88031220	     16.29136379	     66.68160674	     87.71839077	     81.67471440	     -8.71706126	      9.21447928	     40.33200153	     68.39660808
      2.76666670	    -19.89768435	      3.29144547	     -2.41054806	      0.77198601	      0.65284740	     -0.07221645	     83.93134288	    -14.86812634	      2.25175189	     94.89708757	     34.43815205	      1.83037273	      0.00000000	     83.98958396	    -10.89829266	      5.77243932	     96.22492439	     33.86544540	      1.34279821	      0.00000000	    -44.38746754	      0.20300344	      1.43534206	     60.80080900	    -18.98930696	     16.57180571	     61.30234598	     87.76392864	     73.05325625	     -9.24409239	     10.00980361	     37.39565840	     68.23185874
